<svg width="1200" height="630" viewBox="0 0 1200 630" fill="none" xmlns="http://www.w3.org/2000/svg">
  <defs>
    <linearGradient id="bg" x1="0%" y1="0%" x2="100%" y2="100%">
      <stop offset="0%" style="stop-color:#09090b"/>
      <stop offset="100%" style="stop-color:#18181b"/>
    </linearGradient>
    <linearGradient id="accent" x1="0%" y1="0%" x2="100%" y2="0%">
      <stop offset="0%" style="stop-color:#8b5cf6"/>
      <stop offset="100%" style="stop-color:#d946ef"/>
    </linearGradient>
    <pattern id="dots" x="0" y="0" width="40" height="40" patternUnits="userSpaceOnUse">
      <circle cx="2" cy="2" r="1" fill="rgba(139,92,246,0.15)"/>
    </pattern>
  </defs>

  <!-- Background -->
  <rect width="1200" height="630" fill="url(#bg)"/>
  <rect width="1200" height="630" fill="url(#dots)"/>

  <!-- Gradient orbs -->
  <circle cx="200" cy="500" r="300" fill="#8b5cf6" opacity="0.1" filter="blur(80px)"/>
  <circle cx="1000" cy="150" r="250" fill="#d946ef" opacity="0.1" filter="blur(80px)"/>

  <!-- Content -->
  <text x="100" y="200" font-family="system-ui, -apple-system, sans-serif" font-size="28" font-weight="500" fill="#a1a1aa">
    Hello, I'm
  </text>

  <text x="100" y="280" font-family="system-ui, -apple-system, sans-serif" font-size="72" font-weight="700" fill="white">
    Daniel Minton
  </text>

  <text x="100" y="360" font-family="system-ui, -apple-system, sans-serif" font-size="36" font-weight="600" fill="url(#accent)">
    Creative Technologist &amp; Full-Stack Engineer
  </text>

  <text x="100" y="430" font-family="system-ui, -apple-system, sans-serif" font-size="24" fill="#71717a">
    10+ years building production software
  </text>

  <!-- Tech badges -->
  <rect x="100" y="480" width="100" height="36" rx="8" fill="rgba(139,92,246,0.2)"/>
  <text x="120" y="505" font-family="system-ui, sans-serif" font-size="16" fill="#a78bfa">React</text>

  <rect x="220" y="480" width="120" height="36" rx="8" fill="rgba(139,92,246,0.2)"/>
  <text x="240" y="505" font-family="system-ui, sans-serif" font-size="16" fill="#a78bfa">TypeScript</text>

  <rect x="360" y="480" width="90" height="36" rx="8" fill="rgba(139,92,246,0.2)"/>
  <text x="380" y="505" font-family="system-ui, sans-serif" font-size="16" fill="#a78bfa">Node.js</text>

  <rect x="470" y="480" width="60" height="36" rx="8" fill="rgba(139,92,246,0.2)"/>
  <text x="485" y="505" font-family="system-ui, sans-serif" font-size="16" fill="#a78bfa">AWS</text>

  <rect x="550" y="480" width="50" height="36" rx="8" fill="rgba(139,92,246,0.2)"/>
  <text x="563" y="505" font-family="system-ui, sans-serif" font-size="16" fill="#a78bfa">AI</text>

  <!-- Logo -->
  <text x="1000" y="540" font-family="system-ui, -apple-system, sans-serif" font-size="48" font-weight="700" fill="white">
    <tspan fill="#8b5cf6">D</tspan>M
  </text>

  <!-- Decorative line -->
  <rect x="100" y="550" width="200" height="4" rx="2" fill="url(#accent)"/>
</svg>
